<?xml version="1.0" standalone="no"?>
<!DOCTYPE svg PUBLIC "-//W3C//DTD SVG 20010904//EN"
 "http://www.w3.org/TR/2001/REC-SVG-20010904/DTD/svg10.dtd">
<svg version="1.0" xmlns="http://www.w3.org/2000/svg"
 width="300.000000pt" height="292.000000pt" viewBox="0 0 300.000000 292.000000"
 preserveAspectRatio="xMidYMid meet">
<metadata>
Created by potrace 1.10, written by Peter Selinger 2001-2011
</metadata>
<g transform="translate(0.000000,292.000000) scale(0.100000,-0.100000)"
fill="#000000" stroke="none">
<path d="M1448 2816 c-20 -7 -51 -22 -68 -33 -18 -11 -301 -286 -630 -611
-452 -447 -603 -602 -619 -636 -14 -32 -21 -65 -21 -109 0 -124 -8 -114 657
-779 597 -595 598 -597 657 -614 39 -11 79 -15 116 -11 118 10 116 9 748 645
427 430 590 600 609 637 21 40 26 64 26 120 0 130 -8 141 -380 511 -180 179
-443 439 -583 579 -221 220 -264 258 -320 284 -72 34 -130 39 -192 17z m152
-19 c13 4 13 4 0 -7 -13 -10 -11 -11 8 -7 12 3 20 1 16 -4 -3 -5 1 -9 9 -9 8
0 24 -9 37 -20 13 -11 29 -20 37 -20 7 0 13 -7 13 -17 0 -9 3 -13 7 -10 3 4
23 -11 45 -33 21 -23 38 -38 38 -35 0 3 15 -11 33 -31 17 -21 31 -42 29 -47
-1 -4 1 -6 6 -3 10 6 42 -29 42 -45 0 -5 4 -8 8 -5 12 7 124 -109 114 -118 -4
-4 -2 -6 3 -4 6 1 21 -7 35 -19 13 -13 27 -23 30 -23 4 0 13 -11 20 -25 7 -13
22 -27 32 -31 10 -3 25 -18 33 -34 8 -15 30 -38 50 -50 19 -12 35 -26 35 -31
0 -13 78 -87 85 -81 3 3 5 -2 5 -10 0 -9 12 -23 26 -33 42 -28 64 -49 64 -63
0 -7 3 -11 8 -9 4 2 18 -8 32 -21 14 -14 19 -21 11 -17 -9 5 -12 4 -7 -3 4 -7
14 -12 22 -12 8 0 12 -4 9 -10 -3 -5 -2 -10 4 -10 15 0 122 -105 116 -113 -3
-4 -2 -5 2 -2 9 7 34 -16 27 -26 -3 -5 2 -9 10 -9 9 0 16 -7 16 -16 0 -8 5
-12 10 -9 6 3 10 -1 10 -9 0 -8 5 -18 12 -22 7 -5 8 -3 3 6 -5 9 -4 11 3 6 7
-4 12 -14 12 -23 0 -9 2 -14 5 -11 8 8 65 -44 65 -60 0 -7 5 -10 10 -7 9 5 12
-1 9 -21 0 -3 8 -12 18 -21 10 -8 12 -12 6 -8 -8 4 -13 0 -13 -10 0 -10 6 -15
13 -12 7 2 13 -4 14 -17 1 -11 5 -39 9 -62 3 -22 0 -60 -7 -85 -7 -24 -11 -50
-10 -58 1 -7 -2 -10 -8 -6 -6 3 -11 -1 -11 -10 0 -9 -29 -46 -65 -81 -35 -35
-62 -64 -59 -64 3 0 -9 -12 -27 -28 -47 -38 -109 -103 -109 -113 0 -4 -5 -11
-12 -15 -7 -4 -8 -3 -4 5 4 6 -22 -18 -58 -55 -36 -37 -66 -71 -66 -75 0 -5
-6 -9 -14 -9 -8 0 -18 -5 -22 -12 -5 -7 -2 -9 7 -4 8 4 3 -1 -10 -11 -30 -22
-72 -64 -94 -94 -10 -13 -15 -17 -11 -9 7 15 -8 1 -116 -117 -32 -35 -64 -63
-71 -63 -7 0 -10 -2 -7 -5 5 -5 -70 -84 -170 -178 -34 -31 -61 -59 -59 -60 1
-2 -34 -37 -78 -77 -44 -41 -97 -91 -119 -112 -21 -21 -45 -38 -53 -38 -8 0
-21 -6 -29 -14 -22 -23 -100 -30 -161 -16 -37 9 -65 24 -91 49 -20 20 -52 48
-71 63 -19 16 -31 28 -27 28 4 0 -175 182 -398 405 -223 223 -410 405 -416
405 -5 0 -10 5 -10 10 0 6 -25 36 -55 66 -30 31 -55 52 -55 48 0 -5 -9 5 -20
23 -10 18 -41 49 -69 70 -27 21 -52 44 -56 52 -4 10 -2 11 8 5 7 -5 5 -2 -5 8
-10 9 -18 21 -18 28 0 6 -4 9 -9 6 -5 -4 -7 4 -4 16 4 19 3 21 -7 8 -10 -13
-11 -13 -6 3 3 9 2 37 -3 62 -5 25 -5 45 0 45 5 0 9 8 9 18 0 14 -2 15 -10 2
-5 -8 -10 -10 -10 -5 0 6 8 21 17 34 10 15 11 21 3 16 -9 -6 -11 -4 -5 5 11
18 86 100 109 119 39 33 106 103 106 112 0 5 4 9 8 9 13 0 141 128 135 134 -4
3 -2 6 4 6 14 0 153 136 153 149 0 5 5 13 12 17 7 5 8 3 3 -5 -4 -7 24 18 62
56 39 37 68 71 66 75 -2 4 14 20 36 35 22 16 41 33 41 38 1 6 15 21 33 35 17
14 28 19 24 13 -5 -7 -6 -13 -2 -13 3 0 10 12 15 26 6 14 14 22 20 19 6 -3 7
1 4 10 -4 9 -2 15 4 13 5 -2 21 9 34 23 13 14 37 34 51 44 15 9 33 29 40 44 7
14 19 25 25 23 7 -1 16 6 19 15 8 20 63 73 76 73 4 0 5 5 2 10 -3 6 1 10 9 10
9 0 16 5 16 12 0 22 134 138 172 150 21 6 35 15 32 20 -3 5 6 6 22 2 17 -4 25
-3 21 3 -4 6 11 7 41 3 26 -4 54 -5 62 -3z"/>
<path d="M1515 2632 c-16 -2 -35 -8 -42 -14 -7 -5 -18 -6 -24 -2 -7 4 -9 3 -6
-3 7 -11 -49 -63 -67 -63 -5 0 -7 -3 -3 -6 6 -7 -1 -15 -48 -54 -17 -14 -32
-28 -33 -32 -6 -16 -62 -65 -67 -59 -4 3 -5 1 -3 -5 4 -13 -124 -140 -137
-135 -5 1 -7 -1 -3 -5 11 -10 -12 -35 -25 -27 -6 3 -7 1 -3 -5 4 -7 3 -12 -3
-12 -13 0 -101 -89 -101 -102 0 -5 -5 -6 -12 -2 -7 4 -8 3 -4 -5 4 -6 0 -14
-10 -18 -10 -3 -59 -48 -109 -100 -51 -51 -97 -93 -104 -93 -6 0 -10 -4 -8 -9
2 -9 -79 -91 -91 -91 -5 0 -14 -10 -21 -23 -7 -12 -22 -27 -34 -32 -12 -6 -21
-18 -21 -28 1 -9 -4 -17 -11 -17 -7 0 -42 -30 -76 -67 -35 -38 -59 -61 -54
-53 6 9 2 7 -8 -5 -11 -11 -31 -33 -46 -50 -15 -16 -35 -44 -46 -62 -17 -28
-17 -35 -5 -58 8 -14 29 -41 47 -60 18 -19 33 -36 33 -39 0 -10 168 -174 190
-186 11 -6 20 -19 20 -29 0 -27 60 -48 76 -26 6 8 13 12 16 10 3 -3 19 10 36
29 17 19 34 36 39 38 4 2 28 26 53 53 25 27 36 42 25 34 -18 -13 -19 -13 -7 3
8 9 20 14 28 11 8 -3 14 -1 14 4 0 15 374 388 385 384 5 -1 7 0 3 4 -4 4 11
22 32 40 21 18 36 35 33 39 -4 3 1 6 10 6 8 0 19 9 22 20 3 11 13 20 21 20 8
0 13 6 11 13 -1 6 5 11 13 9 8 -2 12 0 8 3 -4 4 -2 17 4 29 15 27 17 56 5 56
-6 0 -7 19 -3 48 4 35 3 43 -5 32 -8 -12 -9 -10 -4 10 3 14 8 34 9 45 2 11 4
20 5 20 2 0 4 9 6 20 2 11 9 21 14 23 6 2 11 9 11 15 0 7 13 26 28 42 15 17
23 24 18 15 -5 -8 3 -3 18 13 15 15 36 27 47 27 11 0 18 4 14 9 -3 6 22 9 60
9 36 -1 68 -5 71 -10 3 -4 14 -8 25 -8 32 0 124 -101 139 -154 14 -51 8 -121
-14 -164 -19 -37 -51 -72 -65 -72 -6 0 -10 -6 -8 -12 1 -7 -4 -12 -11 -10 -8
1 -11 -2 -8 -7 16 -25 -144 -49 -211 -31 -21 5 -33 5 -33 -1 0 -6 -4 -7 -10
-4 -5 3 -10 -1 -10 -9 0 -8 -4 -18 -10 -21 -6 -3 -7 1 -4 12 5 16 4 16 -5 2
-14 -22 -133 -141 -157 -157 -10 -7 -12 -10 -4 -7 8 4 4 -3 -10 -14 -14 -11
-29 -21 -33 -21 -5 0 -5 -4 -2 -10 3 -5 0 -10 -8 -10 -7 0 -19 -11 -25 -25 -6
-14 -17 -24 -24 -23 -7 2 -12 -3 -10 -10 1 -7 -5 -15 -14 -19 -9 -3 -104 -94
-212 -202 -107 -108 -192 -190 -187 -182 5 9 4 12 -3 7 -7 -4 -12 -15 -12 -25
0 -10 -7 -24 -15 -31 -17 -14 -20 -50 -4 -50 5 0 7 -5 4 -10 -3 -6 -2 -10 4
-10 5 0 12 -9 16 -19 4 -14 12 -18 23 -14 9 3 14 3 10 -2 -4 -4 7 -23 26 -41
19 -18 31 -35 28 -38 -3 -3 0 -6 6 -6 16 0 141 -127 133 -136 -3 -4 0 -4 7 0
6 4 19 0 27 -8 9 -8 23 -12 33 -9 23 9 59 33 47 33 -5 0 5 11 23 23 17 13 45
40 61 60 15 20 31 34 34 30 4 -3 10 3 14 13 3 10 33 44 65 75 32 31 58 62 58
68 0 7 4 9 10 6 7 -4 7 3 0 20 -5 14 -11 54 -12 89 -2 52 1 68 17 87 11 12 14
19 8 15 -25 -14 -13 24 12 40 14 9 24 19 21 21 -2 3 5 14 16 25 11 11 22 17
26 14 3 -3 14 2 24 11 27 24 129 30 150 9 18 -18 33 -22 23 -6 -3 6 1 7 9 4 9
-3 13 -11 9 -17 -4 -6 0 -8 10 -4 8 3 25 -3 37 -13 21 -18 23 -18 56 -2 18 9
34 23 34 30 0 7 5 10 10 7 6 -3 10 -2 10 3 0 14 105 122 118 122 7 0 11 3 10
8 0 4 6 23 15 43 9 20 14 48 11 63 -2 14 0 26 5 26 6 0 8 6 6 13 -3 6 6 25 20
41 14 16 25 26 25 22 0 -4 7 -1 15 8 11 11 29 13 72 9 87 -8 126 -41 138 -115
7 -41 -21 -122 -38 -111 -5 3 -7 1 -4 -4 11 -17 -40 -44 -96 -50 -46 -6 -58
-13 -118 -69 -36 -34 -83 -79 -104 -101 -20 -21 -40 -37 -44 -36 -3 0 -12 -5
-19 -13 -7 -8 -10 -14 -6 -14 4 0 -4 -12 -18 -28 -17 -16 -29 -42 -32 -67 -6
-54 -26 -106 -37 -99 -5 3 -8 0 -7 -7 2 -7 -2 -13 -9 -14 -6 0 -15 -4 -20 -9
-5 -5 -3 -6 5 -2 28 16 9 -3 -25 -26 -49 -32 -83 -38 -161 -27 -68 10 -85 5
-127 -38 -10 -10 -28 -23 -39 -29 -12 -5 -20 -18 -20 -27 1 -9 -4 -17 -11 -17
-6 0 -22 -13 -35 -30 -12 -16 -26 -27 -31 -25 -4 3 -10 -4 -14 -15 -3 -11 -10
-20 -14 -20 -4 0 -16 -7 -27 -16 -10 -8 -13 -12 -6 -9 11 6 12 3 3 -14 -12
-22 -27 -30 -16 -9 4 7 -4 0 -17 -17 -21 -28 -34 -80 -16 -69 4 3 8 -2 8 -10
0 -8 9 -20 20 -26 11 -6 20 -17 20 -25 0 -8 5 -15 11 -15 5 0 7 6 4 13 -4 6 7
-4 24 -23 17 -19 31 -38 31 -42 0 -5 6 -8 13 -8 8 0 20 -11 27 -25 7 -14 17
-25 22 -25 5 0 13 -11 18 -25 5 -14 16 -25 24 -25 8 0 19 -6 23 -12 18 -29 55
-51 86 -51 36 -1 118 35 139 60 11 14 11 16 -2 8 -8 -4 4 9 27 29 50 43 261
254 265 264 2 4 7 6 11 4 5 -1 6 2 2 8 -3 5 -3 10 2 10 9 0 79 60 69 60 -3 0
21 27 55 60 33 33 65 60 70 60 5 0 9 7 9 16 0 8 3 14 8 12 8 -4 72 59 65 66
-2 2 14 17 36 32 22 16 41 33 41 37 0 15 155 158 163 151 3 -3 4 2 4 12 -1 9
5 19 13 21 13 4 13 3 0 -7 -13 -10 -13 -11 0 -7 8 2 15 8 15 14 0 6 26 37 58
69 31 31 57 61 57 66 0 5 5 6 10 3 6 -3 10 -1 10 5 0 6 5 8 12 4 6 -4 8 -3 4
4 -3 6 0 14 7 19 7 4 28 27 46 50 19 23 37 41 40 39 14 -9 4 81 -12 115 -10
20 -47 65 -83 99 -35 34 -64 65 -64 69 0 3 -14 15 -30 26 -16 11 -30 26 -30
33 0 7 -4 11 -8 8 -9 -6 -52 38 -52 53 0 4 -10 16 -22 27 l-23 19 19 -25 c11
-14 3 -8 -17 13 -20 21 -37 43 -37 48 0 6 -4 8 -9 5 -5 -3 -24 17 -42 44 -19
27 -41 52 -49 55 -8 3 -4 -6 10 -22 13 -15 2 -5 -25 22 -28 28 -48 54 -47 60
2 5 1 7 -3 4 -7 -8 -65 45 -65 60 0 6 -6 10 -12 8 -7 -1 -12 4 -10 11 1 6 -2
12 -7 12 -12 0 -78 60 -66 60 6 0 -5 10 -22 21 -18 12 -30 26 -26 32 3 5 2 7
-4 4 -11 -7 -66 50 -77 79 -4 9 -9 14 -13 11 -3 -4 -18 10 -34 31 -15 20 -34
37 -41 37 -7 1 -12 7 -10 15 2 8 1 12 -3 8 -9 -9 -35 14 -28 25 2 4 -1 6 -9 5
-7 -2 -12 2 -11 9 1 6 -5 17 -15 25 -16 12 -16 11 -2 -7 8 -11 -10 5 -41 35
-30 30 -61 64 -70 75 -27 37 -87 63 -134 57z m62 -30 c36 -23 1124 -1114 1138
-1141 9 -18 14 -43 11 -56 -7 -28 -1136 -1155 -1176 -1174 -22 -11 -38 -12
-55 -5 -14 5 -90 74 -170 154 l-146 144 148 148 c118 118 152 148 168 143 11
-3 47 -9 80 -12 52 -5 68 -2 110 20 87 44 145 127 145 206 0 20 29 55 133 158
132 130 132 131 185 136 65 5 99 28 130 88 19 36 22 53 17 94 -13 101 -64 145
-169 145 -59 0 -69 -3 -101 -31 -48 -43 -58 -63 -56 -123 l1 -51 -107 -107
c-107 -107 -107 -107 -128 -88 -11 10 -42 29 -69 41 -108 47 -241 -4 -298
-116 -26 -50 -35 -153 -18 -196 l13 -31 -152 -152 -153 -153 -146 149 c-81 82
-149 151 -151 153 -2 3 166 172 374 377 l378 373 76 -3 c110 -5 156 10 218 72
198 198 11 509 -262 435 -26 -7 -57 -28 -91 -63 -68 -69 -90 -144 -75 -246 6
-38 11 -71 11 -73 0 -2 -171 -172 -379 -376 l-379 -372 -54 57 c-29 31 -94 97
-145 147 -50 50 -99 105 -109 123 -17 32 -17 32 14 71 30 39 1104 1102 1140
1129 18 14 80 18 99 6z"/>
<path d="M1609 2071 c-38 -8 -93 -44 -82 -55 3 -3 2 -6 -4 -6 -17 0 -25 -31
-12 -46 6 -7 8 -18 4 -23 -14 -24 68 -81 115 -81 50 1 110 58 110 105 0 31
-30 81 -59 98 -16 9 -31 16 -33 16 -1 -1 -19 -4 -39 -8z m76 -46 c33 -32 32
-75 -1 -114 -34 -41 -75 -42 -115 -2 -56 57 -23 141 56 141 25 0 44 -8 60 -25z"/>
<path d="M1545 1166 c-45 -20 -65 -48 -67 -95 -2 -53 26 -93 74 -105 30 -7 42
-5 71 13 20 12 39 31 42 41 4 11 10 20 14 20 12 0 -4 77 -20 96 -11 14 -70 45
-81 44 -2 -1 -16 -7 -33 -14z m90 -41 c34 -33 33 -74 -3 -108 -35 -33 -72 -35
-108 -4 -20 17 -27 33 -27 57 0 69 89 105 138 55z"/>
</g>
</svg>
